<?xml version="1.0" encoding="UTF-8"?>
<svg id="Layer_1" data-name="Layer 1" xmlns="http://www.w3.org/2000/svg" viewBox="0 0 1553.24 993.06">
  <defs>
    <style>
      .cls-1 {
        fill: #26b34b;
      }

      .cls-2 {
        fill: #fbb040;
      }

      .cls-2, .cls-3, .cls-4, .cls-5, .cls-6, .cls-7, .cls-8, .cls-9 {
        stroke: #231f20;
        stroke-miterlimit: 10;
      }

      .cls-2, .cls-3, .cls-4, .cls-5, .cls-6, .cls-9 {
        stroke-width: 3px;
      }

      .cls-3 {
        fill: none;
      }

      .cls-10 {
        fill: #fff;
      }

      .cls-11 {
        fill: #d71f26;
      }

      .cls-4, .cls-12 {
        fill: #231f20;
      }

      .cls-13 {
        letter-spacing: 0em;
      }

      .cls-12 {
        font-family: SFPro-Black, 'SF Pro';
        font-size: 22px;
        font-variation-settings: 'opsz' 28, 'wght' 1000;
        font-weight: 800;
      }

      .cls-5 {
        fill: #b38ec1;
      }

      .cls-6 {
        fill: #f6a8c0;
      }

      .cls-7 {
        fill: #a4bfe4;
      }

      .cls-7, .cls-8 {
        stroke-width: 2.38px;
      }

      .cls-8 {
        fill: #fab691;
      }

      .cls-14 {
        fill: #d22026;
      }

      .cls-9 {
        fill: #add361;
      }
    </style>
  </defs>
  <rect class="cls-10" x="-62.35" y="-35" width="1723.4" height="1076.55"/>
  <polyline class="cls-2" points="103.11 86.95 62.53 220.17 226.62 277.95 354.54 140.77"/>
  <text class="cls-12" transform="translate(170.72 339.78)"><tspan x="0" y="0">Unclosed</tspan></text>
  <text class="cls-12" transform="translate(137.43 820.34)"><tspan x="0" y="0">Interior ring not </tspan><tspan x="29.57" y="26.4">clockwise</tspan></text>
  <text class="cls-12" transform="translate(455.44 820.34)"><tspan x="0" y="0">Inner and Exterior rings </tspan><tspan x="93.99" y="26.4">C</tspan><tspan class="cls-13" x="110.23" y="26.4">r</tspan><tspan x="119.24" y="26.4">oss</tspan></text>
  <text class="cls-12" transform="translate(852.64 820.34)"><tspan x="0" y="0">Self Intersection</tspan></text>
  <text class="cls-12" transform="translate(1227.18 820.34)"><tspan x="0" y="0">Empty Geometry</tspan></text>
  <text class="cls-12" transform="translate(485.99 339.78)"><tspan x="0" y="0">Less than 3 unique </tspan><tspan x="67.4" y="26.4">nodes</tspan></text>
  <text class="cls-12" transform="translate(884.31 339.78)"><tspan x="0" y="0">Exterior ring not </tspan><tspan x="-15.32" y="26.4">counter-clockwise</tspan></text>
  <text class="cls-12" transform="translate(1216.59 339.78)"><tspan x="0" y="0">Interior ring outside</tspan></text>
  <line class="cls-4" x1="520.98" y1="277.95" x2="652.65" y2="78.13"/>
  <polygon class="cls-9" points="915.3 39.72 977.17 50.6 1037.69 118.6 1062.17 262.75 924.14 290.63 873.82 181.38 915.3 39.72"/>
  <path class="cls-6" d="M290.98,537.29l-163.76,43.12,43.71,165.99,163.76-43.12-43.71-165.99ZM169.26,676.29l10.49-47.71,42.47-47.19,39.84,47.19,48.91,32.51-80.01,46.66-61.7-31.46Z"/>
  <g>
    <polygon class="cls-8" points="659.82 647.83 621.58 714.06 545.09 714.06 506.85 647.83 524.04 618.05 567.83 655.28 571.43 581.59 621.58 581.59 659.82 647.83"/>
    <polygon class="cls-8" points="573 549.37 571.43 581.59 545.09 581.59 524.04 618.05 481.13 581.59 573 549.37"/>
  </g>
  <path class="cls-7" d="M996.39,560.53c-60.7,40.79-121.4,81.57-182.11,122.36l72.96,82.15,124.09-22.4c-69.7-49.79-139.4-99.57-209.11-149.36,16.66-11.49,33.32-22.98,49.98-34.47,66.64,36.57,133.28,73.15,199.91,109.72-.19-22.79-.38-45.57-.57-68.36-18.38-13.21-36.77-26.43-55.15-39.64Z"/>
  <polygon class="cls-5" points="1213.73 198.04 1332.45 124.51 1475.69 187.32 1401.39 295.32 1195.35 307.57 1213.73 198.04"/>
  <path class="cls-3" d="M1471.57,121.62l-46.22,7.39c-9.26-9.99-18.53-19.98-27.79-29.97,5.83-13.04,11.66-26.08,17.49-39.12l77.28,15.05,15,27-35.75,19.65Z"/>
  <path class="cls-11" d="M587.1,414.17c18.64,1.8,32.78,15.91,34.56,34.56v5.98c-2.06,18.52-15.61,32.17-34.11,34.26h-6.88c-19.37-2.22-34.03-18.16-33.83-37.77.2-19.55,15.11-35.14,34.43-37.04h5.84ZM599,473.88l7.6-7.63-14.72-14.7,14.69-14.71-7.68-7.63-14.66,14.7-14.7-14.67-7.65,7.67,14.71,14.66-14.67,14.74,7.64,7.61,14.69-14.72,14.74,14.68Z"/>
  <path class="cls-11" d="M587.1,873.74c18.64,1.8,32.78,15.91,34.56,34.56v5.98c-2.06,18.52-15.61,32.17-34.11,34.26h-6.88c-19.37-2.22-34.03-18.16-33.83-37.77.2-19.55,15.11-35.14,34.43-37.04h5.84ZM599,933.46l7.6-7.63-14.72-14.7,14.69-14.71-7.68-7.63-14.66,14.7-14.7-14.67-7.65,7.67,14.71,14.66-14.67,14.74,7.64,7.61,14.69-14.72,14.74,14.68Z"/>
  <path class="cls-11" d="M958.65,873.74c18.64,1.8,32.78,15.91,34.56,34.56v5.98c-2.06,18.52-15.61,32.17-34.11,34.26h-6.88c-19.37-2.22-34.03-18.16-33.83-37.77s15.11-35.14,34.43-37.04h5.84ZM970.54,933.46l7.6-7.63-14.72-14.7,14.69-14.71-7.68-7.63-14.66,14.7-14.7-14.67-7.65,7.67,14.71,14.66-14.67,14.74,7.64,7.61,14.69-14.72,14.74,14.68Z"/>
  <path class="cls-11" d="M1310.22,414.17c18.64,1.8,32.78,15.91,34.56,34.56v5.98c-2.06,18.52-15.61,32.17-34.11,34.26h-6.88c-19.37-2.22-34.03-18.16-33.83-37.77s15.11-35.14,34.43-37.04h5.84ZM1322.11,473.88l7.6-7.63-14.72-14.7,14.69-14.71-7.68-7.63-14.66,14.7-14.7-14.67-7.65,7.67,14.71,14.66-14.67,14.74,7.64,7.61,14.69-14.72,14.74,14.68Z"/>
  <path class="cls-1" d="M224.91,414.17c.12.1-.06.1.2.12,19.55,1.6,34.38,18.03,34.34,37.35-.04,19.33-14.93,35.67-34.51,37.2-.18.01-.2.04-.33.13h-1.5c.53-.22-2.77-.22-2.24,0h-1.8c-18.75-2.06-32.51-15.8-34.41-34.56v-5.98c1.98-18.46,15.8-32.26,34.26-34.26h5.98ZM196.47,456.7l22.07,17.2,29.11-39.17-7.42-5.49-23.47,31.58-14.63-11.39-5.66,7.28Z"/>
  <path class="cls-1" d="M959.47,414.17c.12.1-.06.1.2.12,19.55,1.6,34.38,18.03,34.34,37.35-.04,19.33-14.93,35.67-34.51,37.2-.18.01-.2.04-.33.13h-1.5c.53-.22-2.77-.22-2.24,0h-1.8c-18.75-2.06-32.51-15.8-34.41-34.56v-5.98c1.98-18.46,15.8-32.26,34.26-34.26h5.98ZM931.03,456.7l22.07,17.2,29.11-39.17-7.42-5.49-23.47,31.58-14.63-11.39-5.66,7.28Z"/>
  <path class="cls-1" d="M219.55,873.74c.12.1-.06.1.2.12,19.55,1.6,34.38,18.03,34.34,37.35-.04,19.33-14.93,35.67-34.51,37.2-.18.01-.2.04-.33.13h-1.5c.53-.22-2.77-.22-2.24,0h-1.8c-18.75-2.06-32.51-15.8-34.41-34.56v-5.98c1.98-18.46,15.8-32.26,34.26-34.26h5.98ZM191.11,916.27l22.07,17.2,29.11-39.17-7.42-5.49-23.47,31.58-14.63-11.39-5.66,7.28Z"/>
  <path class="cls-1" d="M1311.04,873.74c.12.1-.06.1.2.12,19.55,1.6,34.38,18.03,34.34,37.35-.04,19.33-14.93,35.67-34.51,37.2-.18.01-.2.04-.33.13h-1.5c.53-.22-2.77-.22-2.24,0h-1.8c-18.75-2.06-32.51-15.8-34.41-34.56v-5.98c1.98-18.46,15.8-32.26,34.26-34.26h5.98ZM1282.6,916.27l22.07,17.2,29.11-39.17-7.42-5.49-23.47,31.58-14.63-11.39-5.66,7.28Z"/>
  <g>
    <path class="cls-14" d="M1037.18,46.96c12.62,7.2,24.1,16.57,33.93,27.5,4.86,5.5,9.42,11.33,13.36,17.57,1.03,1.53,1.95,3.13,2.88,4.72.46.8.95,1.58,1.4,2.39l1.3,2.45c.84,1.64,1.77,3.24,2.55,4.92l2.29,5.05c2.86,6.81,5.34,13.8,7.18,20.96,1.79,7.17,3.04,14.47,3.76,21.81.67,7.34.88,14.72.53,22.07-.41,7.34-1.18,14.65-2.54,21.85-.19,1-1.16,1.66-2.17,1.47-.95-.18-1.59-1.06-1.5-2h0c.74-7.15,1.26-14.3,1.23-21.45.05-7.14-.34-14.27-1.23-21.33-.85-7.06-2.15-14.06-3.88-20.94-1.79-6.87-4.03-13.61-6.73-20.18l-2.14-4.87c-.7-1.63-1.54-3.2-2.3-4.8l-1.17-2.39c-.4-.79-.85-1.56-1.27-2.34-.85-1.56-1.69-3.13-2.63-4.64-3.65-6.1-7.62-12.04-12.1-17.61l-1.67-2.1-1.72-2.06c-1.14-1.38-2.33-2.72-3.53-4.05-2.4-2.66-4.91-5.23-7.46-7.77-2.59-2.49-5.23-4.95-7.96-7.32-2.74-2.36-5.53-4.66-8.39-6.91Z"/>
    <path class="cls-14" d="M1093.09,233.08c-2.13-18.05-7.63-41.14-15.64-56.56l25.3,16.76,30.16-3.31c-14.19,10.04-29.66,28.05-39.81,43.12Z"/>
  </g>
  <g>
    <path class="cls-14" d="M221.69,596.28c-3.52,3.23-6.83,6.61-9.81,10.22-2.96,3.62-5.64,7.42-7.93,11.42-4.55,7.99-7.59,16.77-8.41,25.71-.42,4.46-.24,8.95.63,13.26.43,2.16,1.07,4.26,1.87,6.28.81,2.02,1.79,3.96,3.02,5.74,2.4,3.58,5.66,6.61,9.45,8.97,3.78,2.38,8.06,4.13,12.51,5.43h.01c.8.24,1.26,1.07,1.02,1.87-.21.73-.93,1.18-1.67,1.07-4.82-.72-9.63-2.09-14.12-4.38-4.48-2.28-8.61-5.57-11.7-9.75-1.56-2.07-2.86-4.33-3.86-6.69-1.01-2.36-1.85-4.8-2.35-7.3-1.08-4.99-1.24-10.1-.69-15.08,1.1-9.99,5.01-19.43,10.64-27.44,2.83-4,6.08-7.67,9.69-10.9,3.59-3.24,7.51-6.09,11.69-8.41Z"/>
    <path class="cls-14" d="M239.31,686.15c-8.08,2.14-18.24,6.15-24.74,10.8l5.99-12.61-3.47-13.52c5.5,5.81,14.7,11.68,22.22,15.33Z"/>
  </g>
</svg>